# xmcd
#
# Track frame offsets:
#	150
#	13040
#	28115
#	65780
#	81535
#	92632
#	109090
#	134975
#
# Disc length: 2217 seconds
#
# Revision: 0
# Processed by: cddbd v1.5.2PL0 Copyright (c) Steve Scherf et al.
# Submitted via: audiograbber 1.83.01
#
DISCID=7408a708
DTITLE=Alice Cooper - The Studio Albums 1969-1983 [CD 04) - Killer
DYEAR=1971
DGENRE=Rock
TTITLE0=Under My Wheels
TTITLE1=Be My Lover
TTITLE2=Halo Of Flies
TTITLE3=Desperado
TTITLE4=You Drive Me Nervous
TTITLE5=Yeah, Yeah, Yeah
TTITLE6=Dead Babies
TTITLE7=Killer
EXTD=
EXTT0=
EXTT1=
EXTT2=
EXTT3=
EXTT4=
EXTT5=
EXTT6=
EXTT7=
PLAYORDER=
